HIERARCHY
ROOT joint_Root
{
	OFFSET 0.0 0.0 0.0
	CHANNELS 6 Xposition Yposition Zposition Zrotation Xrotation Yrotation 
	JOINT Hips
	{
		OFFSET 4.5925 91.4895 -427.239
		CHANNELS 6 Xposition Yposition Zposition Zrotation Xrotation Yrotation 
		JOINT Spine
		{
			OFFSET 15.7357 0.0 0.0
			CHANNELS 6 Xposition Yposition Zposition Zrotation Xrotation Yrotation 
			JOINT Chest
			{
				OFFSET 8.98455 -0.406207 0.0
				CHANNELS 6 Xposition Yposition Zposition Zrotation Xrotation Yrotation 
				JOINT Neck
				{
					OFFSET 16.3773 0.0 0.0
					CHANNELS 6 Xposition Yposition Zposition Zrotation Xrotation Yrotation 
					JOINT Head
					{
						OFFSET 6.45672 0.0 0.0
						CHANNELS 6 Xposition Yposition Zposition Zrotation Xrotation Yrotation 
						End Site
						{
							OFFSET 0.0 0.0 0.0
						}
					}
				}
				JOINT Shoulder_L
				{
					OFFSET 12.9942 -0.242716 4.98039
					CHANNELS 6 Xposition Yposition Zposition Zrotation Xrotation Yrotation 
					JOINT UpperArm_L
					{
						OFFSET 5.34809 0.0 0.0
						CHANNELS 6 Xposition Yposition Zposition Zrotation Xrotation Yrotation 
						JOINT LowerArm_L
						{
							OFFSET 24.3286 1.87007e-05 0.0
							CHANNELS 6 Xposition Yposition Zposition Zrotation Xrotation Yrotation 
							JOINT Hand_L
							{
								OFFSET 22.2916 0.0 0.0
								CHANNELS 6 Xposition Yposition Zposition Zrotation Xrotation Yrotation 
								End Site
								{
									OFFSET 0.0 0.0 0.0
								}
							}
						}
					}
				}
				JOINT Shoulder_R
				{
					OFFSET 12.9945 -0.242716 -4.98039
					CHANNELS 6 Xposition Yposition Zposition Zrotation Xrotation Yrotation 
					JOINT UpperArm_R
					{
						OFFSET -5.34813 0.0 0.0
						CHANNELS 6 Xposition Yposition Zposition Zrotation Xrotation Yrotation 
						JOINT LowerArm_R
						{
							OFFSET -24.3289 0.000322201 0.0
							CHANNELS 6 Xposition Yposition Zposition Zrotation Xrotation Yrotation 
							JOINT Hand_R
							{
								OFFSET -22.2915 -0.000108084 0.0
								CHANNELS 6 Xposition Yposition Zposition Zrotation Xrotation Yrotation 
								End Site
								{
									OFFSET 0.0 0.0 0.0
								}
							}
						}
					}
				}
			}
		}
		JOINT UpperLeg_L
		{
			OFFSET -2.19248 -6.46944 0.0
			CHANNELS 6 Xposition Yposition Zposition Zrotation Xrotation Yrotation 
			JOINT LowerLeg_L
			{
				OFFSET 39.0811 0.0 -1.23785e-05
				CHANNELS 6 Xposition Yposition Zposition Zrotation Xrotation Yrotation 
				JOINT Foot_L
				{
					OFFSET 40.9854 0.0 -1.26872e-05
					CHANNELS 6 Xposition Yposition Zposition Zrotation Xrotation Yrotation 
					JOINT Toes_L
					{
						OFFSET 11.7543 0.0 0.0
						CHANNELS 6 Xposition Yposition Zposition Zrotation Xrotation Yrotation 
						End Site
						{
							OFFSET 0.0 0.0 0.0
						}
					}
				}
			}
		}
		JOINT UpperLeg_R
		{
			OFFSET -2.19251 6.46944 0.0
			CHANNELS 6 Xposition Yposition Zposition Zrotation Xrotation Yrotation 
			JOINT LowerLeg_R
			{
				OFFSET -39.0811 -0.00228153 -0.0401928
				CHANNELS 6 Xposition Yposition Zposition Zrotation Xrotation Yrotation 
				JOINT Foot_R
				{
					OFFSET -40.9854 0.0 0.0
					CHANNELS 6 Xposition Yposition Zposition Zrotation Xrotation Yrotation 
					JOINT Toes_R
					{
						OFFSET -11.7543 0.0 0.0
						CHANNELS 6 Xposition Yposition Zposition Zrotation Xrotation Yrotation 
						End Site
						{
							OFFSET 0.0 0.0 0.0
						}
					}
				}
			}
		}
	}
}
MOTION
Frames:	8
Frame Time:	0.0333333
0.000000 0.000000 0.000000 0.000000 0.000000 -0.000000 -1.570300 89.889100 -2.438700 88.866700 -2.354550 13.042400 15.735700 0.000005 -0.000001 88.384400 76.710000 -88.753300 8.984550 -0.406207 -0.000000 18.802200 -0.769833 -0.612093 16.377300 -0.000001 -0.000001 1.088420 -3.220570 1.141750 6.456720 -0.000001 -0.000000 -5.175100 -2.127070 0.994244 12.994200 -0.242716 4.980390 -91.152600 6.217000 -79.475700 5.348090 -0.000007 -0.000001 -50.824500 40.394300 -33.468600 24.328600 0.000019 0.000005 6.278150 17.230500 -20.374900 22.291600 -0.000001 0.000005 8.826400 5.229550 1.967050 12.994500 -0.242716 -4.980390 89.394500 11.207000 -86.887700 -5.348130 -0.000001 -0.000004 -57.216500 32.496100 -24.755800 -24.328900 0.000322 -0.000009 2.604440 5.887600 -23.923900 -22.291500 -0.000108 -0.000004 16.926100 5.380090 -2.301240 -2.192480 -6.469440 -0.000000 -172.620000 -11.978800 -1.447470 39.081100 -0.000007 -0.000012 -0.266869 0.364820 36.186300 40.985400 -0.000006 -0.000013 -0.523794 4.910400 -71.184800 11.754300 -0.000000 0.000003 -0.000129 -0.001276 -16.626200 -2.192510 6.469440 -0.000001 174.993000 19.799400 -179.701000 -39.081100 -0.002282 -0.040193 -0.133247 0.192773 35.309200 -40.985400 0.000008 0.000006 6.189640 11.792900 -72.727800 -11.754300 -0.000006 -0.000006 -0.002034 -0.029142 -17.758100
0.000000 0.000000 0.000000 0.000000 0.000000 -0.000000 -1.541110 89.889700 -2.487840 88.844500 -2.391400 13.044400 15.735700 0.000005 -0.000001 88.336400 76.682100 -88.700700 8.984550 -0.406207 -0.000000 18.857200 -0.792879 -0.598724 16.377300 -0.000001 -0.000001 1.062150 -3.204360 1.060450 6.456720 -0.000001 -0.000000 -5.293840 -2.132680 0.942171 12.994200 -0.242716 4.980390 -91.159300 6.247070 -79.465500 5.348090 -0.000007 -0.000001 -50.786400 40.329400 -33.454000 24.328600 0.000019 0.000005 6.270330 17.220500 -20.361900 22.291600 -0.000001 0.000005 8.791790 5.228440 1.995860 12.994500 -0.242716 -4.980390 89.394400 11.204000 -86.886400 -5.348130 -0.000001 -0.000004 -57.337800 31.763700 -24.586800 -24.328900 0.000322 -0.000009 2.692900 5.758850 -25.123800 -22.291500 -0.000108 -0.000004 16.987900 5.383150 -2.397780 -2.192480 -6.469440 -0.000000 -172.617000 -12.021200 -1.488670 39.081100 -0.000007 -0.000012 -0.263943 0.360458 36.213700 40.985400 -0.000006 -0.000013 -0.497716 4.904620 -71.169300 11.754300 -0.000000 0.000003 -0.000134 -0.001320 -16.627900 -2.192510 6.469440 -0.000001 175.016000 19.769500 -179.746000 -39.081100 -0.002282 -0.040193 -0.132771 0.192114 35.307400 -40.985400 0.000008 0.000006 6.134980 11.827800 -72.669800 -11.754300 -0.000006 -0.000006 -0.001931 -0.027848 -17.705500
0.000000 0.000000 0.000000 0.000000 0.000000 -0.000000 -1.509980 89.892600 -2.535920 88.843700 -2.434950 13.040700 15.735700 0.000005 -0.000001 88.341200 76.645600 -88.714500 8.984550 -0.406207 -0.000000 18.930300 -0.793749 -0.616127 16.377300 -0.000001 -0.000001 1.010140 -3.243720 1.067220 6.456720 -0.000001 -0.000000 -5.462040 -2.134150 0.852712 12.994200 -0.242716 4.980390 -91.159800 6.240990 -79.450600 5.348090 -0.000007 -0.000001 -50.708200 40.292000 -33.532000 24.328600 0.000019 0.000005 6.213780 17.134000 -20.282700 22.291600 -0.000001 0.000005 8.772050 5.231290 1.921940 12.994500 -0.242716 -4.980390 89.379400 11.252500 -86.822800 -5.348130 -0.000001 -0.000004 -57.219400 31.117100 -24.478300 -24.328900 0.000322 -0.000009 2.823000 5.572970 -26.928900 -22.291500 -0.000108 -0.000004 17.098600 5.382090 -2.364230 -2.192480 -6.469440 -0.000000 -172.640000 -12.044100 -1.532100 39.081100 -0.000007 -0.000012 -0.266813 0.364285 36.220700 40.985400 -0.000006 -0.000013 -0.477792 4.882180 -71.139100 11.754300 -0.000000 0.000003 -0.000129 -0.001278 -16.626300 -2.192510 6.469440 -0.000001 175.010000 19.763500 -179.792000 -39.081100 -0.002282 -0.040193 -0.134754 0.194905 35.308600 -40.985400 0.000008 0.000006 6.104150 11.857100 -72.622000 -11.754300 -0.000006 -0.000006 -0.001974 -0.028393 -17.727700
0.000000 0.000000 0.000000 0.000000 0.000000 -0.000000 -1.476810 89.894600 -2.581740 88.824400 -2.466490 13.046800 15.735700 0.000005 -0.000001 88.314100 76.612300 -88.687400 8.984550 -0.406207 -0.000000 18.996500 -0.808156 -0.613367 16.377300 -0.000001 -0.000001 0.998358 -3.252990 1.042310 6.456720 -0.000001 -0.000000 -5.636600 -2.141780 0.793563 12.994200 -0.242716 4.980390 -91.166500 6.268210 -79.436300 5.348090 -0.000007 -0.000001 -50.609200 40.268100 -33.564500 24.328600 0.000019 0.000005 6.226750 17.155800 -20.298800 22.291600 -0.000001 0.000005 8.884730 5.231010 1.929310 12.994500 -0.242716 -4.980390 89.364800 11.259100 -86.750200 -5.348130 -0.000001 -0.000004 -57.170900 30.274000 -24.368400 -24.328900 0.000322 -0.000009 3.039470 5.489760 -29.039900 -22.291500 -0.000108 -0.000004 17.258600 5.387730 -2.542820 -2.192480 -6.469440 -0.000000 -172.647000 -12.066900 -1.557140 39.081100 -0.000007 -0.000012 -0.262638 0.358361 36.237700 40.985400 -0.000006 -0.000013 -0.459655 4.847480 -71.126900 11.754300 -0.000000 0.000003 -0.000127 -0.001261 -16.625700 -2.192510 6.469440 -0.000001 174.999000 19.799800 -179.820000 -39.081100 -0.002282 -0.040193 -0.135778 0.196385 35.303900 -40.985400 0.000008 0.000006 6.093470 11.946600 -72.577300 -11.754300 -0.000006 -0.000006 -0.002042 -0.029246 -17.762300
0.000000 0.000000 0.000000 0.000000 0.000000 -0.000000 -1.438910 89.899000 -2.639430 88.796200 -2.574420 13.021600 15.735700 0.000005 -0.000001 88.370000 76.595900 -88.745000 8.984550 -0.406207 -0.000000 19.030000 -0.783694 -0.620553 16.377300 -0.000001 -0.000001 1.010610 -3.262710 1.032110 6.456720 -0.000001 -0.000000 -5.840080 -2.123240 0.723101 12.994200 -0.242716 4.980390 -91.170200 6.268550 -79.404200 5.348090 -0.000007 -0.000001 -50.613600 40.183800 -33.548000 24.328600 0.000019 0.000005 6.228450 17.157400 -20.302200 22.291600 -0.000001 0.000005 8.821770 5.229990 1.955900 12.994500 -0.242716 -4.980390 89.343200 11.271200 -86.643300 -5.348130 -0.000001 -0.000004 -57.173200 29.239500 -24.220300 -24.328900 0.000322 -0.000009 3.496460 5.688040 -31.660400 -22.291500 -0.000108 -0.000004 17.449100 5.385990 -2.487400 -2.192480 -6.469440 -0.000000 -172.639000 -12.134500 -1.623030 39.081100 -0.000007 -0.000012 -0.264563 0.360772 36.254000 40.985400 -0.000006 -0.000013 -0.434071 4.830920 -71.099300 11.754300 -0.000000 0.000003 -0.000131 -0.001294 -16.626900 -2.192510 6.469440 -0.000001 175.057000 19.708400 -179.904000 -39.081100 -0.002282 -0.040193 -0.132170 0.191393 35.289400 -40.985400 0.000008 0.000006 6.048480 11.961700 -72.504400 -11.754300 -0.000006 -0.000006 -0.001912 -0.027606 -17.695600
0.000000 0.000000 0.000000 0.000000 0.000000 -0.000000 -1.404130 89.900800 -2.678380 88.792200 -2.618990 13.009400 15.735700 0.000005 -0.000001 88.318600 76.568900 -88.696800 8.984550 -0.406207 -0.000000 19.083300 -0.809188 -0.622261 16.377300 -0.000001 -0.000001 1.006700 -3.246310 1.012100 6.456720 -0.000001 -0.000000 -6.020610 -2.096320 0.627380 12.994200 -0.242716 4.980390 -91.168400 6.264740 -79.413100 5.348090 -0.000007 -0.000001 -50.683400 40.008600 -33.509400 24.328600 0.000019 0.000005 6.259700 17.243000 -20.306300 22.291600 -0.000001 0.000005 8.723860 5.231480 1.917220 12.994500 -0.242716 -4.980390 89.323600 11.273600 -86.544300 -5.348130 -0.000001 -0.000004 -57.170200 28.038600 -24.118200 -24.328900 0.000322 -0.000009 4.041620 5.873980 -34.625700 -22.291500 -0.000108 -0.000004 17.724100 5.386740 -2.511340 -2.192480 -6.469440 -0.000000 -172.658000 -12.187400 -1.660940 39.081100 -0.000007 -0.000012 -0.262184 0.357385 36.264900 40.985400 -0.000006 -0.000013 -0.408807 4.812980 -71.084800 11.754300 -0.000000 0.000003 -0.000131 -0.001293 -16.626900 -2.192510 6.469440 -0.000001 175.044000 19.691300 -179.954000 -39.081100 -0.002282 -0.040193 -0.139528 0.201798 35.288100 -40.985400 0.000008 0.000006 5.988250 12.013600 -72.451800 -11.754300 -0.000006 -0.000006 -0.002027 -0.029056 -17.754600
0.000000 0.000000 0.000000 0.000000 0.000000 -0.000000 -1.363110 89.904900 -2.719120 88.774500 -2.677360 13.027500 15.735700 0.000005 -0.000001 88.301200 76.542100 -88.685600 8.984550 -0.406207 -0.000000 19.136700 -0.819459 -0.632744 16.377300 -0.000001 -0.000001 1.002030 -3.239100 0.995075 6.456720 -0.000001 -0.000000 -6.140640 -2.045900 0.565946 12.994200 -0.242716 4.980390 -91.170900 6.270180 -79.400500 5.348090 -0.000007 -0.000001 -50.593100 39.996300 -33.559600 24.328600 0.000019 0.000005 6.243370 17.178300 -20.325200 22.291600 -0.000001 0.000005 8.706500 5.229870 1.958920 12.994500 -0.242716 -4.980390 89.307700 11.261400 -86.459500 -5.348130 -0.000001 -0.000004 -57.281500 26.662700 -24.018400 -24.328900 0.000322 -0.000009 4.722180 6.109660 -37.819600 -22.291500 -0.000108 -0.000004 17.936200 5.387640 -2.540050 -2.192480 -6.469440 -0.000000 -172.655000 -12.234400 -1.660820 39.081100 -0.000007 -0.000012 -0.266108 0.362677 36.269300 40.985400 -0.000006 -0.000013 -0.390713 4.772630 -71.069400 11.754300 -0.000000 0.000003 -0.000130 -0.001286 -16.626600 -2.192510 6.469440 -0.000001 175.050000 19.664000 -179.971000 -39.081100 -0.002282 -0.040193 -0.136804 0.197999 35.281400 -40.985400 0.000008 0.000006 6.024070 12.038300 -72.419500 -11.754300 -0.000006 -0.000006 -0.002086 -0.029784 -17.784200
0.000000 0.000000 0.000000 0.000000 0.000000 -0.000000 -1.321390 89.909500 -2.765650 88.771100 -2.718490 13.062500 15.735700 0.000005 -0.000001 88.269100 76.502900 -88.657500 8.984550 -0.406207 -0.000000 19.214400 -0.837058 -0.637245 16.377300 -0.000001 -0.000001 1.025930 -3.223570 0.989180 6.456720 -0.000001 -0.000000 -6.323420 -2.004640 0.468261 12.994200 -0.242716 4.980390 -91.176900 6.302000 -79.399600 5.348090 -0.000007 -0.000001 -50.435200 40.047600 -33.683000 24.328600 0.000019 0.000005 6.255580 17.239600 -20.297600 22.291600 -0.000001 0.000005 8.931610 5.230190 1.950720 12.994500 -0.242716 -4.980390 89.294800 11.233000 -86.384600 -5.348130 -0.000001 -0.000004 -57.377300 25.181600 -23.999400 -24.328900 0.000322 -0.000009 5.631790 6.438250 -41.331100 -22.291500 -0.000108 -0.000004 18.272600 5.384150 -2.429180 -2.192480 -6.469440 -0.000000 -172.682000 -12.259600 -1.659920 39.081100 -0.000007 -0.000012 -0.258661 0.352510 36.270500 40.985400 -0.000006 -0.000013 -0.361821 4.743670 -71.040600 11.754300 -0.000000 0.000003 -0.000123 -0.001230 -16.624500 -2.192510 6.469440 -0.000001 175.025000 19.645600 -179.972000 -39.081100 -0.002282 -0.040193 -0.136285 0.197294 35.277500 -40.985400 0.000008 0.000006 6.055330 12.089500 -72.387100 -11.754300 -0.000006 -0.000006 -0.002122 -0.030237 -17.802600
